# xmcd
#
# Track frame offsets: 
#        150
#        13576
#        28962
#        42156
#        56855
#        73431
#        90685
#        107319
#        123292
#        135793
#
# Disc length: 2026 seconds
#
# Revision: 1
# Processed by: cddbd v1.5.2PL0 Copyright (c) Steve Scherf et al.
# Submitted via: ExactAudioCopy v0.95b4
#
DISCID=8307e80a
DTITLE=ภมร พงศ์พันธ์ - กลับมาเถิดใจ
DYEAR=2006
DGENRE=Country
TTITLE0=ฮักสาวเดชอุดม
TTITLE1=กลับมาเถิดใจ
TTITLE2=หยิกหยอก
TTITLE3=แอนร้อยเอ็ด
TTITLE4=ฮักสาวตำซั่ว
TTITLE5=จดหมายใต้หมอน
TTITLE6=เสี'ายคำแพง
TTITLE7=รักละลาย
TTITLE8=รักสาวฟันเหล็ก
TTITLE9=ไอ้หนุ่มเลี้ยงวัว
EXTD=
EXTT0=
EXTT1=
EXTT2=
EXTT3=
EXTT4=
EXTT5=
EXTT6=
EXTT7=
EXTT8=
EXTT9=
PLAYORDER=
